<svg id="visual" viewBox="0 0 600 900" width="600" height="900" xmlns="http://www.w3.org/2000/svg" xmlns:xlink="http://www.w3.org/1999/xlink" version="1.1"><g stroke-width="1" stroke-linejoin="bevel"><path d="M253.7 469L237 533.3L296.3 506.3Z" fill="#021926" stroke="#021926"></path><path d="M237 533.3L252.7 553.3L296.3 506.3Z" fill="#01131f" stroke="#01131f"></path><path d="M252.7 553.3L300.7 553.6L296.3 506.3Z" fill="#021521" stroke="#021521"></path><path d="M253.7 469L184 467L237 533.3Z" fill="#01121e" stroke="#01121e"></path><path d="M237 533.3L205 597.6L252.7 553.3Z" fill="#011c29" stroke="#011c29"></path><path d="M343.3 631.9L340.3 559.6L300.7 553.6Z" fill="#00101c" stroke="#00101c"></path><path d="M300.7 553.6L340.3 559.6L296.3 506.3Z" fill="#021926" stroke="#021926"></path><path d="M379 506.3L349.3 463L296.3 506.3Z" fill="#01121e" stroke="#01121e"></path><path d="M296.3 506.3L349.3 463L253.7 469Z" fill="#021926" stroke="#021926"></path><path d="M253.7 469L165 416.7L184 467Z" fill="#021b28" stroke="#021b28"></path><path d="M107.3 492.3L205 597.6L237 533.3Z" fill="#021521" stroke="#021521"></path><path d="M252.7 553.3L269.7 652.9L300.7 553.6Z" fill="#011e2b" stroke="#011e2b"></path><path d="M340.3 559.6L379 506.3L296.3 506.3Z" fill="#001f2d" stroke="#001f2d"></path><path d="M262.7 371.7L165 416.7L253.7 469Z" fill="#021824" stroke="#021824"></path><path d="M107.3 492.3L161.3 617.6L205 597.6Z" fill="#01131f" stroke="#01131f"></path><path d="M349.3 398.7L262.7 371.7L253.7 469Z" fill="#011e2b" stroke="#011e2b"></path><path d="M165 416.7L141.3 444L184 467Z" fill="#021521" stroke="#021521"></path><path d="M432.7 428L349.3 398.7L349.3 463Z" fill="#01121e" stroke="#01121e"></path><path d="M349.3 463L349.3 398.7L253.7 469Z" fill="#021722" stroke="#021722"></path><path d="M205 597.6L269.7 652.9L252.7 553.3Z" fill="#021521" stroke="#021521"></path><path d="M107.3 492.3L237 533.3L184 467Z" fill="#021b28" stroke="#021b28"></path><path d="M205 597.6L182 646.9L269.7 652.9Z" fill="#021824" stroke="#021824"></path><path d="M269.7 652.9L343.3 631.9L300.7 553.6Z" fill="#021b28" stroke="#021b28"></path><path d="M429 579.6L436.7 522.3L379 506.3Z" fill="#001f2d" stroke="#001f2d"></path><path d="M141.3 444L107.3 492.3L184 467Z" fill="#00101c" stroke="#00101c"></path><path d="M161.3 617.6L182 646.9L205 597.6Z" fill="#021824" stroke="#021824"></path><path d="M141.3 444L91.7 461L107.3 492.3Z" fill="#01131f" stroke="#01131f"></path><path d="M52.7 566.6L113.3 629.9L161.3 617.6Z" fill="#00101c" stroke="#00101c"></path><path d="M97.7 421.7L91.7 461L141.3 444Z" fill="#021521" stroke="#021521"></path><path d="M429 579.6L379 506.3L340.3 559.6Z" fill="#021722" stroke="#021722"></path><path d="M379 506.3L432.7 428L349.3 463Z" fill="#00101c" stroke="#00101c"></path><path d="M349.3 398.7L286.7 328.4L262.7 371.7Z" fill="#011c29" stroke="#011c29"></path><path d="M169.3 306.4L137.3 345.7L165 416.7Z" fill="#011e2b" stroke="#011e2b"></path><path d="M165 416.7L97.7 421.7L141.3 444Z" fill="#011e2b" stroke="#011e2b"></path><path d="M137.3 345.7L97.7 421.7L165 416.7Z" fill="#01131f" stroke="#01131f"></path><path d="M343.3 631.9L429 579.6L340.3 559.6Z" fill="#001f2d" stroke="#001f2d"></path><path d="M436.7 522.3L432.7 428L379 506.3Z" fill="#01131f" stroke="#01131f"></path><path d="M349.3 398.7L390 360.4L286.7 328.4Z" fill="#021824" stroke="#021824"></path><path d="M52.7 566.6L161.3 617.6L107.3 492.3Z" fill="#011e2b" stroke="#011e2b"></path><path d="M161.3 617.6L113.3 629.9L182 646.9Z" fill="#011c29" stroke="#011c29"></path><path d="M432.7 428L390 360.4L349.3 398.7Z" fill="#021722" stroke="#021722"></path><path d="M493.3 456L438 415L432.7 428Z" fill="#021926" stroke="#021926"></path><path d="M432.7 428L438 415L390 360.4Z" fill="#021521" stroke="#021521"></path><path d="M169.3 306.4L165 416.7L262.7 371.7Z" fill="#001f2d" stroke="#001f2d"></path><path d="M0 477L55.7 526.3L91.7 461Z" fill="#01121e" stroke="#01121e"></path><path d="M91.7 461L55.7 526.3L107.3 492.3Z" fill="#011e2b" stroke="#011e2b"></path><path d="M165 704.1L300.7 713.1L269.7 652.9Z" fill="#021722" stroke="#021722"></path><path d="M269.7 652.9L300.7 713.1L343.3 631.9Z" fill="#021824" stroke="#021824"></path><path d="M343.3 631.9L403 672.9L429 579.6Z" fill="#011c29" stroke="#011c29"></path><path d="M165 704.1L269.7 652.9L182 646.9Z" fill="#01131f" stroke="#01131f"></path><path d="M52.7 566.6L83.7 623.9L113.3 629.9Z" fill="#021926" stroke="#021926"></path><path d="M113.3 629.9L165 704.1L182 646.9Z" fill="#011c29" stroke="#011c29"></path><path d="M215 296.1L262.7 371.7L286.7 328.4Z" fill="#021926" stroke="#021926"></path><path d="M215 296.1L212 297.4L262.7 371.7Z" fill="#021b28" stroke="#021b28"></path><path d="M271.7 231.9L215 296.1L286.7 328.4Z" fill="#021824" stroke="#021824"></path><path d="M55.7 526.3L52.7 566.6L107.3 492.3Z" fill="#00101c" stroke="#00101c"></path><path d="M128.3 292.1L169.3 306.4L169.3 191.9Z" fill="#001f2d" stroke="#001f2d"></path><path d="M212 297.4L169.3 306.4L262.7 371.7Z" fill="#011e2b" stroke="#011e2b"></path><path d="M300.7 713.1L403 672.9L343.3 631.9Z" fill="#021b28" stroke="#021b28"></path><path d="M110.3 723.1L165 704.1L113.3 629.9Z" fill="#021521" stroke="#021521"></path><path d="M438 415L430 359.7L390 360.4Z" fill="#021b28" stroke="#021b28"></path><path d="M390 360.4L339.3 285.4L286.7 328.4Z" fill="#011c29" stroke="#011c29"></path><path d="M397 270.1L339.3 285.4L390 360.4Z" fill="#021722" stroke="#021722"></path><path d="M429 579.6L491.7 543.6L436.7 522.3Z" fill="#01121e" stroke="#01121e"></path><path d="M436.7 522.3L493.3 456L432.7 428Z" fill="#021824" stroke="#021824"></path><path d="M438 415L474.7 396.7L430 359.7Z" fill="#011c29" stroke="#011c29"></path><path d="M508.3 655.9L491.7 543.6L429 579.6Z" fill="#021521" stroke="#021521"></path><path d="M491.7 543.6L493.3 456L436.7 522.3Z" fill="#01131f" stroke="#01131f"></path><path d="M371.3 739.1L417 686.1L403 672.9Z" fill="#00101c" stroke="#00101c"></path><path d="M403 672.9L456.7 667.1L429 579.6Z" fill="#001f2d" stroke="#001f2d"></path><path d="M493.3 456L474.7 396.7L438 415Z" fill="#01121e" stroke="#01121e"></path><path d="M169.3 191.9L212 297.4L215 296.1Z" fill="#021824" stroke="#021824"></path><path d="M169.3 191.9L169.3 306.4L212 297.4Z" fill="#01131f" stroke="#01131f"></path><path d="M169.3 306.4L128.3 292.1L137.3 345.7Z" fill="#00101c" stroke="#00101c"></path><path d="M33.7 318.4L0 406.7L97.7 421.7Z" fill="#01131f" stroke="#01131f"></path><path d="M0 475.3L0 477L91.7 461Z" fill="#021926" stroke="#021926"></path><path d="M0 654.9L68.7 667.1L83.7 623.9Z" fill="#00101c" stroke="#00101c"></path><path d="M83.7 623.9L68.7 667.1L113.3 629.9Z" fill="#011e2b" stroke="#011e2b"></path><path d="M417 686.1L456.7 667.1L403 672.9Z" fill="#01121e" stroke="#01121e"></path><path d="M165 704.1L283.7 760.4L300.7 713.1Z" fill="#011e2b" stroke="#011e2b"></path><path d="M300.7 713.1L371.3 739.1L403 672.9Z" fill="#00101c" stroke="#00101c"></path><path d="M417 686.1L472.7 669.9L456.7 667.1Z" fill="#011e2b" stroke="#011e2b"></path><path d="M170 747.4L283.7 760.4L165 704.1Z" fill="#021926" stroke="#021926"></path><path d="M110.3 723.1L170 747.4L165 704.1Z" fill="#021926" stroke="#021926"></path><path d="M342.3 774.4L371.3 739.1L300.7 713.1Z" fill="#01121e" stroke="#01121e"></path><path d="M0 475.3L91.7 461L0 406.7Z" fill="#021b28" stroke="#021b28"></path><path d="M55.7 526.3L0 591.6L52.7 566.6Z" fill="#001f2d" stroke="#001f2d"></path><path d="M52.7 566.6L0 591.6L83.7 623.9Z" fill="#021824" stroke="#021824"></path><path d="M0 406.7L91.7 461L97.7 421.7Z" fill="#001f2d" stroke="#001f2d"></path><path d="M68.7 667.1L110.3 723.1L113.3 629.9Z" fill="#021521" stroke="#021521"></path><path d="M446.7 783.4L472.7 669.9L417 686.1Z" fill="#021926" stroke="#021926"></path><path d="M456.7 667.1L508.3 655.9L429 579.6Z" fill="#021824" stroke="#021824"></path><path d="M342.3 774.4L386 743.4L371.3 739.1Z" fill="#011c29" stroke="#011c29"></path><path d="M371.3 739.1L386 743.4L417 686.1Z" fill="#00101c" stroke="#00101c"></path><path d="M430 359.7L397 270.1L390 360.4Z" fill="#001f2d" stroke="#001f2d"></path><path d="M303.7 232.1L271.7 231.9L286.7 328.4Z" fill="#011e2b" stroke="#011e2b"></path><path d="M462.7 298.4L397 270.1L430 359.7Z" fill="#021824" stroke="#021824"></path><path d="M303.7 232.1L286.7 328.4L339.3 285.4Z" fill="#01131f" stroke="#01131f"></path><path d="M0 477L0 591.6L55.7 526.3Z" fill="#021b28" stroke="#021b28"></path><path d="M64.7 745.4L102.3 743.4L110.3 723.1Z" fill="#001f2d" stroke="#001f2d"></path><path d="M493.3 456L520.3 414.7L474.7 396.7Z" fill="#021926" stroke="#021926"></path><path d="M474.7 396.7L462.7 298.4L430 359.7Z" fill="#01121e" stroke="#01121e"></path><path d="M600 480L520.3 414.7L493.3 456Z" fill="#011e2b" stroke="#011e2b"></path><path d="M536.3 532.3L493.3 456L491.7 543.6Z" fill="#00101c" stroke="#00101c"></path><path d="M314.3 220.1L303.7 232.1L339.3 285.4Z" fill="#011c29" stroke="#011c29"></path><path d="M567.3 563.6L536.3 532.3L491.7 543.6Z" fill="#021722" stroke="#021722"></path><path d="M33.7 318.4L97.7 421.7L137.3 345.7Z" fill="#021521" stroke="#021521"></path><path d="M283.7 760.4L342.3 774.4L300.7 713.1Z" fill="#011e2b" stroke="#011e2b"></path><path d="M295.7 812.7L342.3 774.4L283.7 760.4Z" fill="#021926" stroke="#021926"></path><path d="M64.7 745.4L110.3 723.1L68.7 667.1Z" fill="#021521" stroke="#021521"></path><path d="M110.3 723.1L102.3 743.4L170 747.4Z" fill="#021521" stroke="#021521"></path><path d="M171.3 826.7L295.7 812.7L283.7 760.4Z" fill="#011c29" stroke="#011c29"></path><path d="M548.3 289.4L462.7 298.4L474.7 396.7Z" fill="#021b28" stroke="#021b28"></path><path d="M399 217.9L314.3 220.1L339.3 285.4Z" fill="#021521" stroke="#021521"></path><path d="M303.7 232.1L314.3 220.1L271.7 231.9Z" fill="#021824" stroke="#021824"></path><path d="M399 217.9L339.3 285.4L397 270.1Z" fill="#011e2b" stroke="#011e2b"></path><path d="M550.3 700.1L508.3 655.9L472.7 669.9Z" fill="#021926" stroke="#021926"></path><path d="M472.7 669.9L508.3 655.9L456.7 667.1Z" fill="#021b28" stroke="#021b28"></path><path d="M169.3 191.9L79.7 276.1L128.3 292.1Z" fill="#001f2d" stroke="#001f2d"></path><path d="M128.3 292.1L79.7 276.1L137.3 345.7Z" fill="#011e2b" stroke="#011e2b"></path><path d="M169.3 191.9L215 296.1L271.7 231.9Z" fill="#021b28" stroke="#021b28"></path><path d="M79.7 276.1L33.7 318.4L137.3 345.7Z" fill="#021926" stroke="#021926"></path><path d="M0 591.6L0 654.9L83.7 623.9Z" fill="#01131f" stroke="#01131f"></path><path d="M0 711.1L64.7 745.4L68.7 667.1Z" fill="#021b28" stroke="#021b28"></path><path d="M171.3 826.7L283.7 760.4L170 747.4Z" fill="#01121e" stroke="#01121e"></path><path d="M171.3 826.7L170 747.4L102.3 743.4Z" fill="#021824" stroke="#021824"></path><path d="M443.7 811.7L446.7 783.4L386 743.4Z" fill="#00101c" stroke="#00101c"></path><path d="M386 743.4L446.7 783.4L417 686.1Z" fill="#021824" stroke="#021824"></path><path d="M548.3 289.4L461.7 266.1L462.7 298.4Z" fill="#021722" stroke="#021722"></path><path d="M462.7 298.4L461.7 266.1L397 270.1Z" fill="#021926" stroke="#021926"></path><path d="M508.3 655.9L567.3 563.6L491.7 543.6Z" fill="#021824" stroke="#021824"></path><path d="M536.3 532.3L600 480L493.3 456Z" fill="#011e2b" stroke="#011e2b"></path><path d="M461.7 266.1L399 217.9L397 270.1Z" fill="#01121e" stroke="#01121e"></path><path d="M307.3 158.6L271.7 231.9L314.3 220.1Z" fill="#01131f" stroke="#01131f"></path><path d="M173 164.9L169.3 191.9L229 150.6Z" fill="#021722" stroke="#021722"></path><path d="M79.7 276.1L0 295.4L33.7 318.4Z" fill="#00101c" stroke="#00101c"></path><path d="M0 654.9L0 711.1L68.7 667.1Z" fill="#011c29" stroke="#011c29"></path><path d="M59.7 851.7L102.3 743.4L64.7 745.4Z" fill="#021b28" stroke="#021b28"></path><path d="M59.7 851.7L171.3 826.7L102.3 743.4Z" fill="#011c29" stroke="#011c29"></path><path d="M0 241.1L0 295.4L79.7 276.1Z" fill="#021521" stroke="#021521"></path><path d="M33.7 318.4L0 295.4L0 406.7Z" fill="#021824" stroke="#021824"></path><path d="M443.7 811.7L386 743.4L342.3 774.4Z" fill="#01131f" stroke="#01131f"></path><path d="M600 652.9L600 538.6L567.3 563.6Z" fill="#021824" stroke="#021824"></path><path d="M399 217.9L350.3 180.9L314.3 220.1Z" fill="#01121e" stroke="#01121e"></path><path d="M600 538.6L600 503.3L536.3 532.3Z" fill="#011c29" stroke="#011c29"></path><path d="M520.3 414.7L548.3 289.4L474.7 396.7Z" fill="#021824" stroke="#021824"></path><path d="M600 503.3L600 480L536.3 532.3Z" fill="#01121e" stroke="#01121e"></path><path d="M567.3 563.6L600 538.6L536.3 532.3Z" fill="#021b28" stroke="#021b28"></path><path d="M600 652.9L567.3 563.6L508.3 655.9Z" fill="#021926" stroke="#021926"></path><path d="M254.7 900L314.3 843.7L295.7 812.7Z" fill="#021b28" stroke="#021b28"></path><path d="M295.7 812.7L314.3 843.7L342.3 774.4Z" fill="#01131f" stroke="#01131f"></path><path d="M350.3 180.9L307.3 158.6L314.3 220.1Z" fill="#01131f" stroke="#01131f"></path><path d="M504.3 777.4L550.3 700.1L472.7 669.9Z" fill="#021b28" stroke="#021b28"></path><path d="M229 150.6L169.3 191.9L271.7 231.9Z" fill="#011c29" stroke="#011c29"></path><path d="M34.7 169.9L0 241.1L79.7 276.1Z" fill="#01121e" stroke="#01121e"></path><path d="M115.3 99.3L170.3 164.6L187 75.3Z" fill="#021b28" stroke="#021b28"></path><path d="M173 164.9L170.3 164.6L169.3 191.9Z" fill="#021926" stroke="#021926"></path><path d="M600 480L600 405.7L520.3 414.7Z" fill="#021722" stroke="#021722"></path><path d="M307.3 158.6L229 150.6L271.7 231.9Z" fill="#01131f" stroke="#01131f"></path><path d="M411 858.7L443.7 811.7L342.3 774.4Z" fill="#021926" stroke="#021926"></path><path d="M446.7 783.4L504.3 777.4L472.7 669.9Z" fill="#021926" stroke="#021926"></path><path d="M0 711.1L0 753.4L64.7 745.4Z" fill="#00101c" stroke="#00101c"></path><path d="M600 314.4L548.3 289.4L520.3 414.7Z" fill="#021824" stroke="#021824"></path><path d="M449.7 184.9L405 162.6L399 217.9Z" fill="#021926" stroke="#021926"></path><path d="M399 217.9L405 162.6L350.3 180.9Z" fill="#011c29" stroke="#011c29"></path><path d="M120.3 900L197 860.7L171.3 826.7Z" fill="#01131f" stroke="#01131f"></path><path d="M171.3 826.7L197 860.7L295.7 812.7Z" fill="#021b28" stroke="#021b28"></path><path d="M443.7 811.7L504.3 777.4L446.7 783.4Z" fill="#01121e" stroke="#01121e"></path><path d="M34.7 169.9L79.7 276.1L169.3 191.9Z" fill="#00101c" stroke="#00101c"></path><path d="M600 716.1L600 652.9L550.3 700.1Z" fill="#021b28" stroke="#021b28"></path><path d="M550.3 700.1L600 652.9L508.3 655.9Z" fill="#00101c" stroke="#00101c"></path><path d="M449.7 184.9L399 217.9L461.7 266.1Z" fill="#01131f" stroke="#01131f"></path><path d="M350.3 180.9L371 101.3L307.3 158.6Z" fill="#021b28" stroke="#021b28"></path><path d="M307.3 158.6L251.7 122.6L229 150.6Z" fill="#011c29" stroke="#011c29"></path><path d="M561.3 216.9L449.7 184.9L461.7 266.1Z" fill="#021926" stroke="#021926"></path><path d="M600 314.4L560.3 281.1L548.3 289.4Z" fill="#021521" stroke="#021521"></path><path d="M548.3 289.4L561.3 216.9L461.7 266.1Z" fill="#011e2b" stroke="#011e2b"></path><path d="M288.7 98.3L251.7 122.6L307.3 158.6Z" fill="#021521" stroke="#021521"></path><path d="M187 75.3L170.3 164.6L173 164.9Z" fill="#021722" stroke="#021722"></path><path d="M170.3 164.6L34.7 169.9L169.3 191.9Z" fill="#011c29" stroke="#011c29"></path><path d="M443.7 811.7L532.3 805.7L504.3 777.4Z" fill="#021b28" stroke="#021b28"></path><path d="M314.3 843.7L411 858.7L342.3 774.4Z" fill="#021926" stroke="#021926"></path><path d="M335.3 900L411 858.7L314.3 843.7Z" fill="#001f2d" stroke="#001f2d"></path><path d="M600 405.7L600 314.4L520.3 414.7Z" fill="#021926" stroke="#021926"></path><path d="M560.3 281.1L561.3 216.9L548.3 289.4Z" fill="#00101c" stroke="#00101c"></path><path d="M238 900L254.7 900L197 860.7Z" fill="#01131f" stroke="#01131f"></path><path d="M197 860.7L254.7 900L295.7 812.7Z" fill="#021824" stroke="#021824"></path><path d="M120.3 900L238 900L197 860.7Z" fill="#021926" stroke="#021926"></path><path d="M532.3 805.7L600 716.1L550.3 700.1Z" fill="#021b28" stroke="#021b28"></path><path d="M532.3 805.7L550.3 700.1L504.3 777.4Z" fill="#001f2d" stroke="#001f2d"></path><path d="M0 832.7L59.7 851.7L64.7 745.4Z" fill="#00101c" stroke="#00101c"></path><path d="M254.7 900L335.3 900L314.3 843.7Z" fill="#01131f" stroke="#01131f"></path><path d="M115.3 99.3L34.7 169.9L170.3 164.6Z" fill="#021b28" stroke="#021b28"></path><path d="M474.7 900L443.7 811.7L411 858.7Z" fill="#011c29" stroke="#011c29"></path><path d="M474.7 900L532.3 805.7L443.7 811.7Z" fill="#021b28" stroke="#021b28"></path><path d="M371 101.3L288.7 98.3L307.3 158.6Z" fill="#021926" stroke="#021926"></path><path d="M187 75.3L173 164.9L229 150.6Z" fill="#00101c" stroke="#00101c"></path><path d="M371 101.3L350.3 180.9L405 162.6Z" fill="#011c29" stroke="#011c29"></path><path d="M600 257.1L561.3 216.9L560.3 281.1Z" fill="#021824" stroke="#021824"></path><path d="M489.7 131.6L371 101.3L405 162.6Z" fill="#021722" stroke="#021722"></path><path d="M0 753.4L0 832.7L64.7 745.4Z" fill="#021926" stroke="#021926"></path><path d="M489.7 131.6L405 162.6L449.7 184.9Z" fill="#00101c" stroke="#00101c"></path><path d="M74.7 900L120.3 900L59.7 851.7Z" fill="#011c29" stroke="#011c29"></path><path d="M59.7 851.7L120.3 900L171.3 826.7Z" fill="#01131f" stroke="#01131f"></path><path d="M600 314.4L600 257.1L560.3 281.1Z" fill="#011e2b" stroke="#011e2b"></path><path d="M41.7 132.6L0 171.9L34.7 169.9Z" fill="#00101c" stroke="#00101c"></path><path d="M34.7 169.9L0 171.9L0 241.1Z" fill="#021824" stroke="#021824"></path><path d="M335.3 900L426 900L411 858.7Z" fill="#01131f" stroke="#01131f"></path><path d="M187 75.3L229 150.6L251.7 122.6Z" fill="#021824" stroke="#021824"></path><path d="M115.3 99.3L41.7 132.6L34.7 169.9Z" fill="#01131f" stroke="#01131f"></path><path d="M288.7 98.3L187 75.3L251.7 122.6Z" fill="#011e2b" stroke="#011e2b"></path><path d="M236.7 0L187 75.3L288.7 98.3Z" fill="#01131f" stroke="#01131f"></path><path d="M0 900L74.7 900L59.7 851.7Z" fill="#021926" stroke="#021926"></path><path d="M550.3 167.6L449.7 184.9L561.3 216.9Z" fill="#01131f" stroke="#01131f"></path><path d="M550.3 167.6L489.7 131.6L449.7 184.9Z" fill="#01131f" stroke="#01131f"></path><path d="M600 171.9L550.3 167.6L561.3 216.9Z" fill="#01131f" stroke="#01131f"></path><path d="M426 900L474.7 900L411 858.7Z" fill="#021521" stroke="#021521"></path><path d="M532.3 805.7L600 802.4L600 716.1Z" fill="#01131f" stroke="#01131f"></path><path d="M600 814.7L600 802.4L532.3 805.7Z" fill="#011c29" stroke="#011c29"></path><path d="M524.3 900L600 814.7L532.3 805.7Z" fill="#021926" stroke="#021926"></path><path d="M41.7 132.6L0 119.6L0 171.9Z" fill="#011c29" stroke="#011c29"></path><path d="M0 69.3L0 119.6L41.7 132.6Z" fill="#021926" stroke="#021926"></path><path d="M71.7 61.3L41.7 132.6L115.3 99.3Z" fill="#011c29" stroke="#011c29"></path><path d="M0 832.7L0 900L59.7 851.7Z" fill="#021926" stroke="#021926"></path><path d="M474.7 900L524.3 900L532.3 805.7Z" fill="#021521" stroke="#021521"></path><path d="M600 257.1L600 171.9L561.3 216.9Z" fill="#021824" stroke="#021824"></path><path d="M550.3 167.6L546.3 94.3L489.7 131.6Z" fill="#021926" stroke="#021926"></path><path d="M310.3 0L313.3 28.3L432 0Z" fill="#01131f" stroke="#01131f"></path><path d="M371 101.3L313.3 28.3L288.7 98.3Z" fill="#021926" stroke="#021926"></path><path d="M137.3 0L71.7 61.3L115.3 99.3Z" fill="#021926" stroke="#021926"></path><path d="M503.7 43.3L371 101.3L489.7 131.6Z" fill="#01131f" stroke="#01131f"></path><path d="M137.3 0L115.3 99.3L187 75.3Z" fill="#011e2b" stroke="#011e2b"></path><path d="M600 171.9L600 147.6L550.3 167.6Z" fill="#011e2b" stroke="#011e2b"></path><path d="M600 147.6L546.3 94.3L550.3 167.6Z" fill="#021521" stroke="#021521"></path><path d="M310.3 0L236.7 0L313.3 28.3Z" fill="#011e2b" stroke="#011e2b"></path><path d="M313.3 28.3L236.7 0L288.7 98.3Z" fill="#011e2b" stroke="#011e2b"></path><path d="M0 0L0 69.3L71.7 61.3Z" fill="#011c29" stroke="#011c29"></path><path d="M71.7 61.3L0 69.3L41.7 132.6Z" fill="#01131f" stroke="#01131f"></path><path d="M432 0L313.3 28.3L371 101.3Z" fill="#021521" stroke="#021521"></path><path d="M236.7 0L169 0L187 75.3Z" fill="#01121e" stroke="#01121e"></path><path d="M169 0L137.3 0L187 75.3Z" fill="#01121e" stroke="#01121e"></path><path d="M524.3 900L600 900L600 814.7Z" fill="#011e2b" stroke="#011e2b"></path><path d="M479.7 0L503.7 43.3L572.3 0Z" fill="#021521" stroke="#021521"></path><path d="M546.3 94.3L503.7 43.3L489.7 131.6Z" fill="#021824" stroke="#021824"></path><path d="M503.7 43.3L432 0L371 101.3Z" fill="#00101c" stroke="#00101c"></path><path d="M137.3 0L73.7 0L71.7 61.3Z" fill="#021824" stroke="#021824"></path><path d="M572.3 0L503.7 43.3L546.3 94.3Z" fill="#00101c" stroke="#00101c"></path><path d="M503.7 43.3L479.7 0L432 0Z" fill="#01131f" stroke="#01131f"></path><path d="M73.7 0L0 0L71.7 61.3Z" fill="#01131f" stroke="#01131f"></path><path d="M600 147.6L600 29.3L546.3 94.3Z" fill="#011e2b" stroke="#011e2b"></path><path d="M600 29.3L572.3 0L546.3 94.3Z" fill="#021521" stroke="#021521"></path><path d="M600 29.3L600 0L572.3 0Z" fill="#021926" stroke="#021926"></path></g></svg>